<mxfile host="Electron" modified="2024-03-01T09:11:31.610Z" agent="Mozilla/5.0 (Windows NT 10.0; Win64; x64) AppleWebKit/537.36 (KHTML, like Gecko) draw.io/23.1.5 Chrome/120.0.6099.109 Electron/28.1.0 Safari/537.36" etag="-fvDjaSBq10WCwATYDhh" version="23.1.5" type="device">
  <diagram name="Page-1" id="c3QuGUCrtwv8ahnLyNjO">
    <mxGraphModel dx="1878" dy="5947" grid="1" gridSize="10" guides="1" tooltips="1" connect="1" arrows="1" fold="1" page="1" pageScale="1" pageWidth="3300" pageHeight="4681" math="0" shadow="0">
      <root>
        <mxCell id="0" />
        <mxCell id="1" parent="0" />
        <mxCell id="awCe2UNKOzJMhMb5uT8b-14" value="" style="group" parent="1" vertex="1" connectable="0">
          <mxGeometry x="280" y="-3220" width="870" height="250" as="geometry" />
        </mxCell>
        <mxCell id="awCe2UNKOzJMhMb5uT8b-15" value="&lt;span style=&quot;font-size: 24px;&quot;&gt;Client&lt;br&gt;Subscription&lt;/span&gt;" style="rounded=1;whiteSpace=wrap;html=1;fillColor=#ffe6cc;strokeColor=#d79b00;" parent="awCe2UNKOzJMhMb5uT8b-14" vertex="1">
          <mxGeometry x="710" y="170" width="160" height="70" as="geometry" />
        </mxCell>
        <mxCell id="awCe2UNKOzJMhMb5uT8b-16" value="&lt;font style=&quot;font-size: 24px;&quot;&gt;MQTT Broker Server&lt;/font&gt;" style="rounded=1;whiteSpace=wrap;html=1;fillColor=#bac8d3;strokeColor=#23445d;" parent="awCe2UNKOzJMhMb5uT8b-14" vertex="1">
          <mxGeometry x="345" width="160" height="60" as="geometry" />
        </mxCell>
        <mxCell id="awCe2UNKOzJMhMb5uT8b-17" value="&lt;span style=&quot;font-size: 24px;&quot;&gt;Server&lt;br&gt;Publishing&lt;/span&gt;" style="rounded=1;whiteSpace=wrap;html=1;fillColor=#ffe6cc;strokeColor=#d79b00;" parent="awCe2UNKOzJMhMb5uT8b-14" vertex="1">
          <mxGeometry y="172.5" width="160" height="65" as="geometry" />
        </mxCell>
        <mxCell id="awCe2UNKOzJMhMb5uT8b-18" value="Topic: FL-Modeling" style="ellipse;whiteSpace=wrap;html=1;" parent="awCe2UNKOzJMhMb5uT8b-14" vertex="1">
          <mxGeometry x="365" y="157.5" width="120" height="80" as="geometry" />
        </mxCell>
        <mxCell id="awCe2UNKOzJMhMb5uT8b-19" value="" style="shape=singleArrow;whiteSpace=wrap;html=1;arrowWidth=0.43571428571429466;arrowSize=0.21530612244897976;fillColor=#d5e8d4;strokeColor=#82b366;" parent="awCe2UNKOzJMhMb5uT8b-14" vertex="1">
          <mxGeometry x="205" y="160" width="140" height="40" as="geometry" />
        </mxCell>
        <mxCell id="awCe2UNKOzJMhMb5uT8b-20" value="" style="shape=singleArrow;whiteSpace=wrap;html=1;arrowWidth=0.43571428571429466;arrowSize=0.21530612244897976;fillColor=#d5e8d4;strokeColor=#82b366;" parent="awCe2UNKOzJMhMb5uT8b-14" vertex="1">
          <mxGeometry x="540" y="160" width="140" height="40" as="geometry" />
        </mxCell>
        <mxCell id="awCe2UNKOzJMhMb5uT8b-21" value="" style="shape=singleArrow;whiteSpace=wrap;html=1;arrowWidth=0.43571428571429466;arrowSize=0.21530612244897976;rotation=-180;fillColor=#fa6800;fontColor=#000000;strokeColor=#C73500;" parent="awCe2UNKOzJMhMb5uT8b-14" vertex="1">
          <mxGeometry x="540" y="210" width="140" height="40" as="geometry" />
        </mxCell>
        <mxCell id="awCe2UNKOzJMhMb5uT8b-22" value="" style="shape=singleArrow;whiteSpace=wrap;html=1;arrowWidth=0.43571428571429466;arrowSize=0.21530612244897976;rotation=-180;fillColor=#fa6800;fontColor=#000000;strokeColor=#C73500;" parent="awCe2UNKOzJMhMb5uT8b-14" vertex="1">
          <mxGeometry x="205" y="210" width="140" height="40" as="geometry" />
        </mxCell>
        <mxCell id="awCe2UNKOzJMhMb5uT8b-23" value="&lt;b&gt;Publishing&lt;/b&gt;" style="text;html=1;strokeColor=none;fillColor=none;align=center;verticalAlign=middle;whiteSpace=wrap;rounded=0;" parent="awCe2UNKOzJMhMb5uT8b-14" vertex="1">
          <mxGeometry x="230" y="110" width="60" height="30" as="geometry" />
        </mxCell>
        <mxCell id="awCe2UNKOzJMhMb5uT8b-24" value="&lt;b&gt;Subcribing&lt;/b&gt;" style="text;html=1;strokeColor=none;fillColor=none;align=center;verticalAlign=middle;whiteSpace=wrap;rounded=0;" parent="awCe2UNKOzJMhMb5uT8b-14" vertex="1">
          <mxGeometry x="570" y="110" width="60" height="30" as="geometry" />
        </mxCell>
        <mxCell id="awCe2UNKOzJMhMb5uT8b-25" value="" style="group" parent="1" vertex="1" connectable="0">
          <mxGeometry x="350" y="-3530" width="690" height="260" as="geometry" />
        </mxCell>
        <mxCell id="awCe2UNKOzJMhMb5uT8b-26" value="&lt;font style=&quot;font-size: 18px;&quot;&gt;Server&lt;/font&gt;" style="rounded=1;whiteSpace=wrap;html=1;fillColor=#ffe6cc;strokeColor=#d79b00;" parent="awCe2UNKOzJMhMb5uT8b-25" vertex="1">
          <mxGeometry x="270" width="120" height="60" as="geometry" />
        </mxCell>
        <mxCell id="awCe2UNKOzJMhMb5uT8b-27" value="&lt;font style=&quot;font-size: 18px;&quot;&gt;Client&lt;/font&gt;" style="rounded=1;whiteSpace=wrap;html=1;fillColor=#dae8fc;strokeColor=#6c8ebf;" parent="awCe2UNKOzJMhMb5uT8b-25" vertex="1">
          <mxGeometry y="200" width="120" height="60" as="geometry" />
        </mxCell>
        <mxCell id="awCe2UNKOzJMhMb5uT8b-28" value="&lt;font style=&quot;font-size: 18px;&quot;&gt;Client&lt;/font&gt;" style="rounded=1;whiteSpace=wrap;html=1;fillColor=#dae8fc;strokeColor=#6c8ebf;" parent="awCe2UNKOzJMhMb5uT8b-25" vertex="1">
          <mxGeometry x="570" y="200" width="120" height="60" as="geometry" />
        </mxCell>
        <mxCell id="awCe2UNKOzJMhMb5uT8b-29" value="&lt;font style=&quot;font-size: 18px;&quot;&gt;Client&lt;/font&gt;" style="rounded=1;whiteSpace=wrap;html=1;fillColor=#dae8fc;strokeColor=#6c8ebf;" parent="awCe2UNKOzJMhMb5uT8b-25" vertex="1">
          <mxGeometry x="160" y="200" width="120" height="60" as="geometry" />
        </mxCell>
        <mxCell id="awCe2UNKOzJMhMb5uT8b-30" value="&lt;font style=&quot;font-size: 18px;&quot;&gt;Client&lt;/font&gt;" style="rounded=1;whiteSpace=wrap;html=1;fillColor=#dae8fc;strokeColor=#6c8ebf;" parent="awCe2UNKOzJMhMb5uT8b-25" vertex="1">
          <mxGeometry x="410" y="200" width="120" height="60" as="geometry" />
        </mxCell>
        <mxCell id="awCe2UNKOzJMhMb5uT8b-31" value="" style="endArrow=none;dashed=1;html=1;dashPattern=1 3;strokeWidth=2;rounded=0;fillColor=#dae8fc;strokeColor=#6c8ebf;" parent="awCe2UNKOzJMhMb5uT8b-25" edge="1">
          <mxGeometry width="50" height="50" relative="1" as="geometry">
            <mxPoint x="300" y="230.20999999999998" as="sourcePoint" />
            <mxPoint x="400" y="230.20999999999998" as="targetPoint" />
            <Array as="points">
              <mxPoint x="340" y="229.70999999999998" />
            </Array>
          </mxGeometry>
        </mxCell>
        <mxCell id="awCe2UNKOzJMhMb5uT8b-32" value="" style="endArrow=none;html=1;rounded=0;entryX=0;entryY=0.75;entryDx=0;entryDy=0;" parent="awCe2UNKOzJMhMb5uT8b-25" target="awCe2UNKOzJMhMb5uT8b-26" edge="1">
          <mxGeometry width="50" height="50" relative="1" as="geometry">
            <mxPoint x="30" y="200" as="sourcePoint" />
            <mxPoint x="80" y="150" as="targetPoint" />
          </mxGeometry>
        </mxCell>
        <mxCell id="awCe2UNKOzJMhMb5uT8b-33" value="" style="endArrow=none;html=1;rounded=0;entryX=0.25;entryY=1;entryDx=0;entryDy=0;exitX=0.5;exitY=0;exitDx=0;exitDy=0;" parent="awCe2UNKOzJMhMb5uT8b-25" source="awCe2UNKOzJMhMb5uT8b-29" target="awCe2UNKOzJMhMb5uT8b-26" edge="1">
          <mxGeometry width="50" height="50" relative="1" as="geometry">
            <mxPoint x="190" y="190" as="sourcePoint" />
            <mxPoint x="490" as="targetPoint" />
          </mxGeometry>
        </mxCell>
        <mxCell id="awCe2UNKOzJMhMb5uT8b-34" value="" style="endArrow=none;html=1;rounded=0;entryX=0.75;entryY=1;entryDx=0;entryDy=0;exitX=0.5;exitY=0;exitDx=0;exitDy=0;" parent="awCe2UNKOzJMhMb5uT8b-25" source="awCe2UNKOzJMhMb5uT8b-30" target="awCe2UNKOzJMhMb5uT8b-26" edge="1">
          <mxGeometry width="50" height="50" relative="1" as="geometry">
            <mxPoint x="420" y="120" as="sourcePoint" />
            <mxPoint x="660" y="-20" as="targetPoint" />
          </mxGeometry>
        </mxCell>
        <mxCell id="awCe2UNKOzJMhMb5uT8b-35" value="" style="endArrow=none;html=1;rounded=0;entryX=1;entryY=0.75;entryDx=0;entryDy=0;exitX=0.5;exitY=0;exitDx=0;exitDy=0;" parent="awCe2UNKOzJMhMb5uT8b-25" source="awCe2UNKOzJMhMb5uT8b-28" target="awCe2UNKOzJMhMb5uT8b-26" edge="1">
          <mxGeometry width="50" height="50" relative="1" as="geometry">
            <mxPoint x="490" y="60" as="sourcePoint" />
            <mxPoint x="730" y="-80" as="targetPoint" />
          </mxGeometry>
        </mxCell>
        <mxCell id="awCe2UNKOzJMhMb5uT8b-38" value="" style="group" parent="1" vertex="1" connectable="0">
          <mxGeometry x="230" y="-2860" width="1090" height="720.5" as="geometry" />
        </mxCell>
        <mxCell id="awCe2UNKOzJMhMb5uT8b-39" value="" style="group" parent="awCe2UNKOzJMhMb5uT8b-38" vertex="1" connectable="0">
          <mxGeometry y="10.5" width="1090" height="720.5" as="geometry" />
        </mxCell>
        <mxCell id="awCe2UNKOzJMhMb5uT8b-40" value="" style="rounded=0;whiteSpace=wrap;html=1;fillColor=none;dashed=1;dashPattern=12 12;strokeColor=#FF8000;container=0;" parent="awCe2UNKOzJMhMb5uT8b-39" vertex="1">
          <mxGeometry x="120" y="185" width="970" height="535" as="geometry" />
        </mxCell>
        <mxCell id="awCe2UNKOzJMhMb5uT8b-41" value="" style="group;verticalAlign=bottom;align=left;" parent="awCe2UNKOzJMhMb5uT8b-39" vertex="1" connectable="0">
          <mxGeometry x="150" width="890" height="720" as="geometry" />
        </mxCell>
        <mxCell id="awCe2UNKOzJMhMb5uT8b-42" value="&lt;font style=&quot;font-size: 18px;&quot;&gt;Server&lt;/font&gt;" style="rounded=1;whiteSpace=wrap;html=1;" parent="awCe2UNKOzJMhMb5uT8b-41" vertex="1">
          <mxGeometry x="40" width="100" height="45" as="geometry" />
        </mxCell>
        <mxCell id="awCe2UNKOzJMhMb5uT8b-43" value="&lt;font style=&quot;font-size: 18px;&quot;&gt;Client&lt;/font&gt;" style="rounded=1;whiteSpace=wrap;html=1;" parent="awCe2UNKOzJMhMb5uT8b-41" vertex="1">
          <mxGeometry x="760" width="100" height="45" as="geometry" />
        </mxCell>
        <mxCell id="awCe2UNKOzJMhMb5uT8b-44" value="" style="endArrow=none;html=1;rounded=0;entryX=0.5;entryY=1;entryDx=0;entryDy=0;" parent="awCe2UNKOzJMhMb5uT8b-41" source="awCe2UNKOzJMhMb5uT8b-72" target="awCe2UNKOzJMhMb5uT8b-42" edge="1">
          <mxGeometry width="50" height="50" relative="1" as="geometry">
            <mxPoint x="90" y="600" as="sourcePoint" />
            <mxPoint x="120" y="80" as="targetPoint" />
          </mxGeometry>
        </mxCell>
        <mxCell id="awCe2UNKOzJMhMb5uT8b-45" value="" style="endArrow=none;html=1;rounded=0;entryX=0.5;entryY=1;entryDx=0;entryDy=0;" parent="awCe2UNKOzJMhMb5uT8b-41" source="awCe2UNKOzJMhMb5uT8b-59" target="awCe2UNKOzJMhMb5uT8b-43" edge="1">
          <mxGeometry width="50" height="50" relative="1" as="geometry">
            <mxPoint x="810" y="600" as="sourcePoint" />
            <mxPoint x="840" y="90" as="targetPoint" />
          </mxGeometry>
        </mxCell>
        <mxCell id="awCe2UNKOzJMhMb5uT8b-46" value="&lt;span style=&quot;font-size: 18px;&quot;&gt;Broker&lt;/span&gt;" style="rounded=1;whiteSpace=wrap;html=1;" parent="awCe2UNKOzJMhMb5uT8b-41" vertex="1">
          <mxGeometry x="385" width="100" height="45" as="geometry" />
        </mxCell>
        <mxCell id="awCe2UNKOzJMhMb5uT8b-47" value="" style="endArrow=none;html=1;rounded=0;entryX=0.5;entryY=1;entryDx=0;entryDy=0;" parent="awCe2UNKOzJMhMb5uT8b-41" source="awCe2UNKOzJMhMb5uT8b-70" target="awCe2UNKOzJMhMb5uT8b-46" edge="1">
          <mxGeometry width="50" height="50" relative="1" as="geometry">
            <mxPoint x="435" y="600" as="sourcePoint" />
            <mxPoint x="465" y="90" as="targetPoint" />
          </mxGeometry>
        </mxCell>
        <mxCell id="awCe2UNKOzJMhMb5uT8b-48" value="&lt;font style=&quot;font-size: 14px;&quot;&gt;Modeling&lt;/font&gt;" style="rounded=0;whiteSpace=wrap;html=1;" parent="awCe2UNKOzJMhMb5uT8b-41" vertex="1">
          <mxGeometry x="390" y="95" width="90" height="60" as="geometry" />
        </mxCell>
        <mxCell id="awCe2UNKOzJMhMb5uT8b-49" value="topic" style="text;html=1;strokeColor=none;fillColor=none;align=center;verticalAlign=middle;whiteSpace=wrap;rounded=0;" parent="awCe2UNKOzJMhMb5uT8b-41" vertex="1">
          <mxGeometry x="430" y="65" width="60" height="30" as="geometry" />
        </mxCell>
        <mxCell id="awCe2UNKOzJMhMb5uT8b-50" value="" style="endArrow=classic;html=1;rounded=0;entryX=0;entryY=0.25;entryDx=0;entryDy=0;" parent="awCe2UNKOzJMhMb5uT8b-41" target="awCe2UNKOzJMhMb5uT8b-48" edge="1">
          <mxGeometry width="50" height="50" relative="1" as="geometry">
            <mxPoint x="90" y="110" as="sourcePoint" />
            <mxPoint x="210" y="70" as="targetPoint" />
          </mxGeometry>
        </mxCell>
        <mxCell id="awCe2UNKOzJMhMb5uT8b-51" value="" style="endArrow=classic;html=1;rounded=0;entryX=0;entryY=0.25;entryDx=0;entryDy=0;" parent="awCe2UNKOzJMhMb5uT8b-41" target="awCe2UNKOzJMhMb5uT8b-59" edge="1">
          <mxGeometry width="50" height="50" relative="1" as="geometry">
            <mxPoint x="480" y="110" as="sourcePoint" />
            <mxPoint x="810" y="110" as="targetPoint" />
          </mxGeometry>
        </mxCell>
        <mxCell id="awCe2UNKOzJMhMb5uT8b-52" value="Send Model" style="text;html=1;strokeColor=none;fillColor=none;align=center;verticalAlign=middle;whiteSpace=wrap;rounded=0;" parent="awCe2UNKOzJMhMb5uT8b-41" vertex="1">
          <mxGeometry x="190" y="80" width="85" height="30" as="geometry" />
        </mxCell>
        <mxCell id="awCe2UNKOzJMhMb5uT8b-53" value="Receive Model" style="text;html=1;strokeColor=none;fillColor=none;align=center;verticalAlign=middle;whiteSpace=wrap;rounded=0;" parent="awCe2UNKOzJMhMb5uT8b-41" vertex="1">
          <mxGeometry x="600" y="80" width="110" height="30" as="geometry" />
        </mxCell>
        <mxCell id="awCe2UNKOzJMhMb5uT8b-54" value="" style="endArrow=classic;html=1;rounded=0;entryX=1;entryY=0.75;entryDx=0;entryDy=0;dashed=1;dashPattern=12 12;" parent="awCe2UNKOzJMhMb5uT8b-41" target="awCe2UNKOzJMhMb5uT8b-48" edge="1">
          <mxGeometry width="50" height="50" relative="1" as="geometry">
            <mxPoint x="810" y="140" as="sourcePoint" />
            <mxPoint x="820" y="234.5" as="targetPoint" />
          </mxGeometry>
        </mxCell>
        <mxCell id="awCe2UNKOzJMhMb5uT8b-55" value="Ack" style="text;html=1;strokeColor=none;fillColor=none;align=center;verticalAlign=middle;whiteSpace=wrap;rounded=0;" parent="awCe2UNKOzJMhMb5uT8b-41" vertex="1">
          <mxGeometry x="590" y="140" width="110" height="30" as="geometry" />
        </mxCell>
        <mxCell id="awCe2UNKOzJMhMb5uT8b-56" value="" style="endArrow=classic;html=1;rounded=0;entryX=1.05;entryY=0.662;entryDx=0;entryDy=0;dashed=1;dashPattern=12 12;entryPerimeter=0;" parent="awCe2UNKOzJMhMb5uT8b-41" target="awCe2UNKOzJMhMb5uT8b-58" edge="1">
          <mxGeometry width="50" height="50" relative="1" as="geometry">
            <mxPoint x="390" y="139" as="sourcePoint" />
            <mxPoint x="90" y="139" as="targetPoint" />
          </mxGeometry>
        </mxCell>
        <mxCell id="awCe2UNKOzJMhMb5uT8b-57" value="Ack" style="text;html=1;strokeColor=none;fillColor=none;align=center;verticalAlign=middle;whiteSpace=wrap;rounded=0;" parent="awCe2UNKOzJMhMb5uT8b-41" vertex="1">
          <mxGeometry x="177.5" y="140" width="110" height="30" as="geometry" />
        </mxCell>
        <mxCell id="awCe2UNKOzJMhMb5uT8b-58" value="" style="rounded=0;whiteSpace=wrap;html=1;" parent="awCe2UNKOzJMhMb5uT8b-41" vertex="1">
          <mxGeometry x="80" y="95" width="20" height="65" as="geometry" />
        </mxCell>
        <mxCell id="awCe2UNKOzJMhMb5uT8b-59" value="" style="rounded=0;whiteSpace=wrap;html=1;" parent="awCe2UNKOzJMhMb5uT8b-41" vertex="1">
          <mxGeometry x="800" y="95" width="20" height="65" as="geometry" />
        </mxCell>
        <mxCell id="awCe2UNKOzJMhMb5uT8b-60" value="Save Model" style="text;html=1;strokeColor=none;fillColor=none;align=center;verticalAlign=middle;whiteSpace=wrap;rounded=0;" parent="awCe2UNKOzJMhMb5uT8b-41" vertex="1">
          <mxGeometry x="830" y="110" width="60" height="30" as="geometry" />
        </mxCell>
        <mxCell id="awCe2UNKOzJMhMb5uT8b-61" value="Add client&lt;br&gt;(ID)" style="text;html=1;strokeColor=none;fillColor=none;align=center;verticalAlign=middle;whiteSpace=wrap;rounded=0;" parent="awCe2UNKOzJMhMb5uT8b-41" vertex="1">
          <mxGeometry x="10" y="110" width="60" height="30" as="geometry" />
        </mxCell>
        <mxCell id="awCe2UNKOzJMhMb5uT8b-62" value="" style="rounded=0;whiteSpace=wrap;html=1;" parent="awCe2UNKOzJMhMb5uT8b-41" vertex="1">
          <mxGeometry x="800" y="197.5" width="20" height="92.5" as="geometry" />
        </mxCell>
        <mxCell id="awCe2UNKOzJMhMb5uT8b-63" value="" style="endArrow=none;html=1;rounded=0;entryX=0.5;entryY=1;entryDx=0;entryDy=0;" parent="awCe2UNKOzJMhMb5uT8b-41" source="awCe2UNKOzJMhMb5uT8b-62" target="awCe2UNKOzJMhMb5uT8b-59" edge="1">
          <mxGeometry width="50" height="50" relative="1" as="geometry">
            <mxPoint x="810" y="600" as="sourcePoint" />
            <mxPoint x="810" y="45" as="targetPoint" />
          </mxGeometry>
        </mxCell>
        <mxCell id="awCe2UNKOzJMhMb5uT8b-64" value="Trainning&lt;br&gt;Local" style="text;html=1;strokeColor=none;fillColor=none;align=center;verticalAlign=middle;whiteSpace=wrap;rounded=0;" parent="awCe2UNKOzJMhMb5uT8b-41" vertex="1">
          <mxGeometry x="830" y="223.75" width="60" height="30" as="geometry" />
        </mxCell>
        <mxCell id="awCe2UNKOzJMhMb5uT8b-65" value="" style="endArrow=none;html=1;rounded=0;entryX=0.5;entryY=1;entryDx=0;entryDy=0;" parent="awCe2UNKOzJMhMb5uT8b-41" target="awCe2UNKOzJMhMb5uT8b-66" edge="1">
          <mxGeometry width="50" height="50" relative="1" as="geometry">
            <mxPoint x="810" y="590" as="sourcePoint" />
            <mxPoint x="810" y="290" as="targetPoint" />
          </mxGeometry>
        </mxCell>
        <mxCell id="awCe2UNKOzJMhMb5uT8b-66" value="" style="rounded=0;whiteSpace=wrap;html=1;" parent="awCe2UNKOzJMhMb5uT8b-41" vertex="1">
          <mxGeometry x="800" y="310" width="20" height="370" as="geometry" />
        </mxCell>
        <mxCell id="awCe2UNKOzJMhMb5uT8b-67" value="" style="endArrow=none;html=1;rounded=0;entryX=0.5;entryY=1;entryDx=0;entryDy=0;" parent="awCe2UNKOzJMhMb5uT8b-41" source="awCe2UNKOzJMhMb5uT8b-66" target="awCe2UNKOzJMhMb5uT8b-62" edge="1">
          <mxGeometry width="50" height="50" relative="1" as="geometry">
            <mxPoint x="810" y="600" as="sourcePoint" />
            <mxPoint x="810" y="160" as="targetPoint" />
          </mxGeometry>
        </mxCell>
        <mxCell id="awCe2UNKOzJMhMb5uT8b-68" value="" style="endArrow=classic;html=1;rounded=0;entryX=1.025;entryY=0.043;entryDx=0;entryDy=0;exitX=-0.09;exitY=0.069;exitDx=0;exitDy=0;entryPerimeter=0;exitPerimeter=0;" parent="awCe2UNKOzJMhMb5uT8b-41" source="awCe2UNKOzJMhMb5uT8b-66" target="awCe2UNKOzJMhMb5uT8b-70" edge="1">
          <mxGeometry width="50" height="50" relative="1" as="geometry">
            <mxPoint x="790" y="330.4100000000001" as="sourcePoint" />
            <mxPoint x="470" y="329.4100000000001" as="targetPoint" />
          </mxGeometry>
        </mxCell>
        <mxCell id="awCe2UNKOzJMhMb5uT8b-69" value="" style="endArrow=none;html=1;rounded=0;entryX=0.5;entryY=1;entryDx=0;entryDy=0;" parent="awCe2UNKOzJMhMb5uT8b-41" target="awCe2UNKOzJMhMb5uT8b-70" edge="1">
          <mxGeometry width="50" height="50" relative="1" as="geometry">
            <mxPoint x="435" y="720" as="sourcePoint" />
            <mxPoint x="435" y="45" as="targetPoint" />
          </mxGeometry>
        </mxCell>
        <mxCell id="awCe2UNKOzJMhMb5uT8b-70" value="&lt;font style=&quot;font-size: 14px;&quot;&gt;Trainning&lt;/font&gt;" style="rounded=0;whiteSpace=wrap;html=1;verticalAlign=top;" parent="awCe2UNKOzJMhMb5uT8b-41" vertex="1">
          <mxGeometry x="390" y="320" width="90" height="370" as="geometry" />
        </mxCell>
        <mxCell id="awCe2UNKOzJMhMb5uT8b-71" value="Local Model" style="text;html=1;strokeColor=none;fillColor=none;align=center;verticalAlign=middle;whiteSpace=wrap;rounded=0;" parent="awCe2UNKOzJMhMb5uT8b-41" vertex="1">
          <mxGeometry x="590" y="310" width="110" height="30" as="geometry" />
        </mxCell>
        <mxCell id="awCe2UNKOzJMhMb5uT8b-72" value="" style="rounded=0;whiteSpace=wrap;html=1;" parent="awCe2UNKOzJMhMb5uT8b-41" vertex="1">
          <mxGeometry x="80" y="310" width="20" height="80" as="geometry" />
        </mxCell>
        <mxCell id="awCe2UNKOzJMhMb5uT8b-73" value="" style="endArrow=classic;html=1;rounded=0;entryX=1;entryY=0.25;entryDx=0;entryDy=0;" parent="awCe2UNKOzJMhMb5uT8b-41" edge="1">
          <mxGeometry width="50" height="50" relative="1" as="geometry">
            <mxPoint x="390" y="336" as="sourcePoint" />
            <mxPoint x="100" y="335.5" as="targetPoint" />
          </mxGeometry>
        </mxCell>
        <mxCell id="awCe2UNKOzJMhMb5uT8b-74" value="Collected Models as points" style="text;html=1;strokeColor=none;fillColor=none;align=center;verticalAlign=middle;whiteSpace=wrap;rounded=0;" parent="awCe2UNKOzJMhMb5uT8b-41" vertex="1">
          <mxGeometry x="175" y="310" width="150" height="30" as="geometry" />
        </mxCell>
        <mxCell id="awCe2UNKOzJMhMb5uT8b-75" value="" style="rounded=0;whiteSpace=wrap;html=1;" parent="awCe2UNKOzJMhMb5uT8b-41" vertex="1">
          <mxGeometry x="80" y="420" width="20" height="100" as="geometry" />
        </mxCell>
        <mxCell id="awCe2UNKOzJMhMb5uT8b-76" value="" style="endArrow=classic;html=1;rounded=0;" parent="awCe2UNKOzJMhMb5uT8b-41" edge="1">
          <mxGeometry width="50" height="50" relative="1" as="geometry">
            <mxPoint x="140" y="440" as="sourcePoint" />
            <mxPoint x="100" y="440" as="targetPoint" />
          </mxGeometry>
        </mxCell>
        <mxCell id="awCe2UNKOzJMhMb5uT8b-77" value="" style="endArrow=none;html=1;rounded=0;" parent="awCe2UNKOzJMhMb5uT8b-41" edge="1">
          <mxGeometry width="50" height="50" relative="1" as="geometry">
            <mxPoint x="140" y="440" as="sourcePoint" />
            <mxPoint x="140" y="380" as="targetPoint" />
          </mxGeometry>
        </mxCell>
        <mxCell id="awCe2UNKOzJMhMb5uT8b-78" value="" style="endArrow=none;html=1;rounded=0;" parent="awCe2UNKOzJMhMb5uT8b-41" edge="1">
          <mxGeometry width="50" height="50" relative="1" as="geometry">
            <mxPoint x="100" y="379.79999999999995" as="sourcePoint" />
            <mxPoint x="140" y="379.79999999999995" as="targetPoint" />
          </mxGeometry>
        </mxCell>
        <mxCell id="awCe2UNKOzJMhMb5uT8b-79" value="Collected" style="text;html=1;strokeColor=none;fillColor=none;align=center;verticalAlign=middle;whiteSpace=wrap;rounded=0;" parent="awCe2UNKOzJMhMb5uT8b-41" vertex="1">
          <mxGeometry x="10" y="330" width="60" height="30" as="geometry" />
        </mxCell>
        <mxCell id="awCe2UNKOzJMhMb5uT8b-80" value="Cluster models and remove stragglers" style="text;html=1;strokeColor=none;fillColor=none;align=center;verticalAlign=middle;whiteSpace=wrap;rounded=0;" parent="awCe2UNKOzJMhMb5uT8b-41" vertex="1">
          <mxGeometry x="10" y="440" width="60" height="60" as="geometry" />
        </mxCell>
        <mxCell id="awCe2UNKOzJMhMb5uT8b-81" value="" style="endArrow=none;html=1;rounded=0;entryX=0.5;entryY=1;entryDx=0;entryDy=0;" parent="awCe2UNKOzJMhMb5uT8b-41" target="awCe2UNKOzJMhMb5uT8b-82" edge="1">
          <mxGeometry width="50" height="50" relative="1" as="geometry">
            <mxPoint x="90" y="720" as="sourcePoint" />
            <mxPoint x="90" y="390" as="targetPoint" />
          </mxGeometry>
        </mxCell>
        <mxCell id="awCe2UNKOzJMhMb5uT8b-82" value="" style="rounded=0;whiteSpace=wrap;html=1;" parent="awCe2UNKOzJMhMb5uT8b-41" vertex="1">
          <mxGeometry x="80" y="560" width="20" height="100" as="geometry" />
        </mxCell>
        <mxCell id="awCe2UNKOzJMhMb5uT8b-83" value="" style="endArrow=none;html=1;rounded=0;entryX=0.5;entryY=1;entryDx=0;entryDy=0;" parent="awCe2UNKOzJMhMb5uT8b-41" source="awCe2UNKOzJMhMb5uT8b-82" target="awCe2UNKOzJMhMb5uT8b-72" edge="1">
          <mxGeometry width="50" height="50" relative="1" as="geometry">
            <mxPoint x="90" y="720" as="sourcePoint" />
            <mxPoint x="90" y="45" as="targetPoint" />
          </mxGeometry>
        </mxCell>
        <mxCell id="awCe2UNKOzJMhMb5uT8b-84" value="Aggregation" style="text;html=1;strokeColor=none;fillColor=none;align=center;verticalAlign=middle;whiteSpace=wrap;rounded=0;" parent="awCe2UNKOzJMhMb5uT8b-41" vertex="1">
          <mxGeometry y="595" width="60" height="30" as="geometry" />
        </mxCell>
        <mxCell id="awCe2UNKOzJMhMb5uT8b-85" value="" style="endArrow=classic;html=1;rounded=0;entryX=1.05;entryY=0.662;entryDx=0;entryDy=0;dashed=1;dashPattern=12 12;entryPerimeter=0;" parent="awCe2UNKOzJMhMb5uT8b-41" edge="1">
          <mxGeometry width="50" height="50" relative="1" as="geometry">
            <mxPoint x="101" y="650" as="sourcePoint" />
            <mxPoint x="390" y="651" as="targetPoint" />
          </mxGeometry>
        </mxCell>
        <mxCell id="awCe2UNKOzJMhMb5uT8b-86" value="" style="endArrow=classic;html=1;rounded=0;entryX=0;entryY=0.922;entryDx=0;entryDy=0;dashed=1;dashPattern=12 12;entryPerimeter=0;" parent="awCe2UNKOzJMhMb5uT8b-41" target="awCe2UNKOzJMhMb5uT8b-66" edge="1">
          <mxGeometry width="50" height="50" relative="1" as="geometry">
            <mxPoint x="480" y="650" as="sourcePoint" />
            <mxPoint x="769" y="651" as="targetPoint" />
          </mxGeometry>
        </mxCell>
        <mxCell id="awCe2UNKOzJMhMb5uT8b-87" value="" style="endArrow=none;html=1;rounded=0;entryX=0.5;entryY=1;entryDx=0;entryDy=0;" parent="awCe2UNKOzJMhMb5uT8b-41" edge="1">
          <mxGeometry width="50" height="50" relative="1" as="geometry">
            <mxPoint x="810" y="720" as="sourcePoint" />
            <mxPoint x="810" y="686.25" as="targetPoint" />
          </mxGeometry>
        </mxCell>
        <mxCell id="awCe2UNKOzJMhMb5uT8b-88" value="Update model" style="text;html=1;strokeColor=none;fillColor=none;align=center;verticalAlign=middle;whiteSpace=wrap;rounded=0;" parent="awCe2UNKOzJMhMb5uT8b-41" vertex="1">
          <mxGeometry x="830" y="470" width="60" height="30" as="geometry" />
        </mxCell>
        <mxCell id="awCe2UNKOzJMhMb5uT8b-89" value="Send model" style="text;html=1;strokeColor=none;fillColor=none;align=center;verticalAlign=middle;whiteSpace=wrap;rounded=0;" parent="awCe2UNKOzJMhMb5uT8b-41" vertex="1">
          <mxGeometry x="185" y="625" width="110" height="30" as="geometry" />
        </mxCell>
        <mxCell id="awCe2UNKOzJMhMb5uT8b-90" value="Receive model" style="text;html=1;strokeColor=none;fillColor=none;align=center;verticalAlign=middle;whiteSpace=wrap;rounded=0;" parent="awCe2UNKOzJMhMb5uT8b-41" vertex="1">
          <mxGeometry x="600" y="625" width="110" height="30" as="geometry" />
        </mxCell>
        <mxCell id="awCe2UNKOzJMhMb5uT8b-91" value="Client 1" style="rounded=0;whiteSpace=wrap;html=1;" parent="awCe2UNKOzJMhMb5uT8b-41" vertex="1">
          <mxGeometry x="400" y="360" width="70" height="40" as="geometry" />
        </mxCell>
        <mxCell id="awCe2UNKOzJMhMb5uT8b-92" value="Client 2" style="rounded=0;whiteSpace=wrap;html=1;" parent="awCe2UNKOzJMhMb5uT8b-41" vertex="1">
          <mxGeometry x="400" y="420" width="70" height="40" as="geometry" />
        </mxCell>
        <mxCell id="awCe2UNKOzJMhMb5uT8b-93" value="Client (n-1)" style="rounded=0;whiteSpace=wrap;html=1;" parent="awCe2UNKOzJMhMb5uT8b-41" vertex="1">
          <mxGeometry x="400" y="550" width="70" height="40" as="geometry" />
        </mxCell>
        <mxCell id="awCe2UNKOzJMhMb5uT8b-94" value="Client n" style="rounded=0;whiteSpace=wrap;html=1;" parent="awCe2UNKOzJMhMb5uT8b-41" vertex="1">
          <mxGeometry x="400" y="615" width="70" height="40" as="geometry" />
        </mxCell>
        <mxCell id="awCe2UNKOzJMhMb5uT8b-95" value="" style="endArrow=none;dashed=1;html=1;dashPattern=1 3;strokeWidth=2;rounded=0;" parent="awCe2UNKOzJMhMb5uT8b-41" edge="1">
          <mxGeometry width="50" height="50" relative="1" as="geometry">
            <mxPoint x="434.40999999999997" y="535" as="sourcePoint" />
            <mxPoint x="434.40999999999997" y="475" as="targetPoint" />
          </mxGeometry>
        </mxCell>
        <mxCell id="awCe2UNKOzJMhMb5uT8b-96" value="" style="group" parent="awCe2UNKOzJMhMb5uT8b-41" vertex="1" connectable="0">
          <mxGeometry x="99.16999999999999" y="508.97" width="40" height="60.200000000000045" as="geometry" />
        </mxCell>
        <mxCell id="awCe2UNKOzJMhMb5uT8b-97" value="" style="endArrow=classic;html=1;rounded=0;" parent="awCe2UNKOzJMhMb5uT8b-96" edge="1">
          <mxGeometry width="50" height="50" relative="1" as="geometry">
            <mxPoint x="40" y="60.200000000000045" as="sourcePoint" />
            <mxPoint y="60.200000000000045" as="targetPoint" />
          </mxGeometry>
        </mxCell>
        <mxCell id="awCe2UNKOzJMhMb5uT8b-98" value="" style="endArrow=none;html=1;rounded=0;" parent="awCe2UNKOzJMhMb5uT8b-96" edge="1">
          <mxGeometry width="50" height="50" relative="1" as="geometry">
            <mxPoint x="40" y="60.200000000000045" as="sourcePoint" />
            <mxPoint x="40" y="0.20000000000004547" as="targetPoint" />
          </mxGeometry>
        </mxCell>
        <mxCell id="awCe2UNKOzJMhMb5uT8b-99" value="" style="endArrow=none;html=1;rounded=0;" parent="awCe2UNKOzJMhMb5uT8b-96" edge="1">
          <mxGeometry width="50" height="50" relative="1" as="geometry">
            <mxPoint as="sourcePoint" />
            <mxPoint x="40" as="targetPoint" />
          </mxGeometry>
        </mxCell>
        <mxCell id="awCe2UNKOzJMhMb5uT8b-100" value="" style="strokeWidth=2;html=1;shape=mxgraph.flowchart.annotation_2;align=left;labelPosition=right;pointerEvents=1;" parent="awCe2UNKOzJMhMb5uT8b-39" vertex="1">
          <mxGeometry x="90" y="185.5" width="50" height="535" as="geometry" />
        </mxCell>
        <mxCell id="awCe2UNKOzJMhMb5uT8b-101" value="Repeat" style="text;html=1;strokeColor=none;fillColor=none;align=center;verticalAlign=middle;whiteSpace=wrap;rounded=0;" parent="awCe2UNKOzJMhMb5uT8b-39" vertex="1">
          <mxGeometry y="438" width="60" height="30" as="geometry" />
        </mxCell>
        <mxCell id="awCe2UNKOzJMhMb5uT8b-102" value="" style="group" parent="awCe2UNKOzJMhMb5uT8b-38" vertex="1" connectable="0">
          <mxGeometry x="970" y="150" width="40" height="60.200000000000045" as="geometry" />
        </mxCell>
        <mxCell id="awCe2UNKOzJMhMb5uT8b-103" value="" style="endArrow=classic;html=1;rounded=0;" parent="awCe2UNKOzJMhMb5uT8b-102" edge="1">
          <mxGeometry width="50" height="50" relative="1" as="geometry">
            <mxPoint x="40" y="60.200000000000045" as="sourcePoint" />
            <mxPoint y="60.200000000000045" as="targetPoint" />
          </mxGeometry>
        </mxCell>
        <mxCell id="awCe2UNKOzJMhMb5uT8b-104" value="" style="endArrow=none;html=1;rounded=0;" parent="awCe2UNKOzJMhMb5uT8b-102" edge="1">
          <mxGeometry width="50" height="50" relative="1" as="geometry">
            <mxPoint x="40" y="60.200000000000045" as="sourcePoint" />
            <mxPoint x="40" y="0.20000000000004547" as="targetPoint" />
          </mxGeometry>
        </mxCell>
        <mxCell id="awCe2UNKOzJMhMb5uT8b-105" value="" style="endArrow=none;html=1;rounded=0;" parent="awCe2UNKOzJMhMb5uT8b-102" edge="1">
          <mxGeometry width="50" height="50" relative="1" as="geometry">
            <mxPoint as="sourcePoint" />
            <mxPoint x="40" as="targetPoint" />
          </mxGeometry>
        </mxCell>
        <mxCell id="awCe2UNKOzJMhMb5uT8b-106" value="" style="group" parent="awCe2UNKOzJMhMb5uT8b-38" vertex="1" connectable="0">
          <mxGeometry x="970" y="270" width="40" height="60.200000000000045" as="geometry" />
        </mxCell>
        <mxCell id="awCe2UNKOzJMhMb5uT8b-107" value="" style="endArrow=classic;html=1;rounded=0;" parent="awCe2UNKOzJMhMb5uT8b-106" edge="1">
          <mxGeometry width="50" height="50" relative="1" as="geometry">
            <mxPoint x="40" y="60.200000000000045" as="sourcePoint" />
            <mxPoint y="60.200000000000045" as="targetPoint" />
          </mxGeometry>
        </mxCell>
        <mxCell id="awCe2UNKOzJMhMb5uT8b-108" value="" style="endArrow=none;html=1;rounded=0;" parent="awCe2UNKOzJMhMb5uT8b-106" edge="1">
          <mxGeometry width="50" height="50" relative="1" as="geometry">
            <mxPoint x="40" y="60.200000000000045" as="sourcePoint" />
            <mxPoint x="40" y="0.20000000000004547" as="targetPoint" />
          </mxGeometry>
        </mxCell>
        <mxCell id="awCe2UNKOzJMhMb5uT8b-109" value="" style="endArrow=none;html=1;rounded=0;" parent="awCe2UNKOzJMhMb5uT8b-106" edge="1">
          <mxGeometry width="50" height="50" relative="1" as="geometry">
            <mxPoint as="sourcePoint" />
            <mxPoint x="40" as="targetPoint" />
          </mxGeometry>
        </mxCell>
        <mxCell id="awCe2UNKOzJMhMb5uT8b-111" value="&lt;font style=&quot;font-size: 14px;&quot;&gt;FL-CCS&lt;/font&gt;" style="rounded=1;whiteSpace=wrap;html=1;" parent="1" vertex="1">
          <mxGeometry x="1620" y="-3520" width="120" height="60" as="geometry" />
        </mxCell>
        <mxCell id="awCe2UNKOzJMhMb5uT8b-112" value="&lt;span style=&quot;font-size: 14px;&quot;&gt;Modeling&lt;/span&gt;" style="rounded=1;whiteSpace=wrap;html=1;" parent="1" vertex="1">
          <mxGeometry x="1430" y="-3410" width="120" height="60" as="geometry" />
        </mxCell>
        <mxCell id="awCe2UNKOzJMhMb5uT8b-113" value="&lt;span style=&quot;font-size: 14px;&quot;&gt;Clients&lt;/span&gt;" style="rounded=1;whiteSpace=wrap;html=1;" parent="1" vertex="1">
          <mxGeometry x="1610" y="-3410" width="120" height="60" as="geometry" />
        </mxCell>
        <mxCell id="awCe2UNKOzJMhMb5uT8b-114" value="&lt;font style=&quot;font-size: 24px;&quot;&gt;&lt;b&gt;Topic&lt;/b&gt;&lt;/font&gt;" style="text;html=1;align=center;verticalAlign=middle;whiteSpace=wrap;rounded=0;" parent="1" vertex="1">
          <mxGeometry x="1370" y="-3590" width="60" height="30" as="geometry" />
        </mxCell>
        <mxCell id="awCe2UNKOzJMhMb5uT8b-116" value="&lt;h1&gt;&lt;span style=&quot;font-size: 36px;&quot;&gt;About MQTT&lt;/span&gt;&lt;/h1&gt;&lt;p&gt;&lt;font style=&quot;font-size: 24px;&quot;&gt;Các thiết bị subcribe và broker bằng địa chỉ của broker (host, port) + topic mà thiết bị muốn đăng kí để nhận thông tin. Nếu muốn gửi thông tin thì publish&amp;nbsp; lại gói tin vào topic đó.&lt;/font&gt;&lt;/p&gt;&lt;p&gt;&lt;font style=&quot;font-size: 24px;&quot;&gt;&lt;br&gt;&lt;/font&gt;&lt;/p&gt;" style="text;html=1;spacing=5;spacingTop=-20;whiteSpace=wrap;overflow=hidden;rounded=0;" parent="1" vertex="1">
          <mxGeometry x="250" y="-4500" width="890" height="410" as="geometry" />
        </mxCell>
        <mxCell id="awCe2UNKOzJMhMb5uT8b-117" value="&lt;span style=&quot;font-size: 14px;&quot;&gt;Update-model&lt;/span&gt;" style="rounded=1;whiteSpace=wrap;html=1;" parent="1" vertex="1">
          <mxGeometry x="1770" y="-3410" width="120" height="60" as="geometry" />
        </mxCell>
        <mxCell id="awCe2UNKOzJMhMb5uT8b-120" value="&lt;font style=&quot;font-size: 18px;&quot;&gt;Server&lt;/font&gt;" style="rounded=1;whiteSpace=wrap;html=1;fillColor=#ffe6cc;strokeColor=#d79b00;" parent="1" vertex="1">
          <mxGeometry x="1430" y="-4330" width="120" height="60" as="geometry" />
        </mxCell>
        <mxCell id="awCe2UNKOzJMhMb5uT8b-121" value="&lt;font style=&quot;font-size: 18px;&quot;&gt;Client&lt;/font&gt;" style="rounded=1;whiteSpace=wrap;html=1;fillColor=#dae8fc;strokeColor=#6c8ebf;" parent="1" vertex="1">
          <mxGeometry x="2320" y="-4450" width="120" height="60" as="geometry" />
        </mxCell>
        <mxCell id="awCe2UNKOzJMhMb5uT8b-122" value="&lt;font style=&quot;font-size: 18px;&quot;&gt;Client&lt;/font&gt;" style="rounded=1;whiteSpace=wrap;html=1;fillColor=#dae8fc;strokeColor=#6c8ebf;" parent="1" vertex="1">
          <mxGeometry x="2320" y="-4560" width="120" height="60" as="geometry" />
        </mxCell>
        <mxCell id="awCe2UNKOzJMhMb5uT8b-123" value="&lt;font style=&quot;font-size: 18px;&quot;&gt;Client&lt;/font&gt;" style="rounded=1;whiteSpace=wrap;html=1;fillColor=#dae8fc;strokeColor=#6c8ebf;" parent="1" vertex="1">
          <mxGeometry x="2320" y="-4210" width="120" height="60" as="geometry" />
        </mxCell>
        <mxCell id="awCe2UNKOzJMhMb5uT8b-124" value="&lt;font style=&quot;font-size: 18px;&quot;&gt;Client&lt;/font&gt;" style="rounded=1;whiteSpace=wrap;html=1;fillColor=#dae8fc;strokeColor=#6c8ebf;" parent="1" vertex="1">
          <mxGeometry x="2320" y="-4090" width="120" height="60" as="geometry" />
        </mxCell>
        <mxCell id="awCe2UNKOzJMhMb5uT8b-125" value="" style="endArrow=none;dashed=1;html=1;dashPattern=1 3;strokeWidth=2;rounded=0;fillColor=#dae8fc;strokeColor=#6c8ebf;" parent="1" edge="1">
          <mxGeometry width="50" height="50" relative="1" as="geometry">
            <mxPoint x="2380" y="-4370" as="sourcePoint" />
            <mxPoint x="2380" y="-4230" as="targetPoint" />
            <Array as="points" />
          </mxGeometry>
        </mxCell>
        <mxCell id="awCe2UNKOzJMhMb5uT8b-130" value="&lt;font style=&quot;font-size: 14px;&quot;&gt;FL-CCS&lt;/font&gt;" style="rounded=1;whiteSpace=wrap;html=1;" parent="1" vertex="1">
          <mxGeometry x="1900" y="-4550" width="120" height="60" as="geometry" />
        </mxCell>
        <mxCell id="awCe2UNKOzJMhMb5uT8b-131" value="&lt;span style=&quot;font-size: 14px;&quot;&gt;Modeling&lt;/span&gt;" style="rounded=1;whiteSpace=wrap;html=1;" parent="1" vertex="1">
          <mxGeometry x="1900" y="-4240" width="120" height="60" as="geometry" />
        </mxCell>
        <mxCell id="awCe2UNKOzJMhMb5uT8b-132" value="&lt;span style=&quot;font-size: 14px;&quot;&gt;Clients&lt;/span&gt;" style="rounded=1;whiteSpace=wrap;html=1;" parent="1" vertex="1">
          <mxGeometry x="1900" y="-4340" width="120" height="60" as="geometry" />
        </mxCell>
        <mxCell id="awCe2UNKOzJMhMb5uT8b-133" value="&lt;span style=&quot;font-size: 14px;&quot;&gt;Update-model&lt;/span&gt;" style="rounded=1;whiteSpace=wrap;html=1;" parent="1" vertex="1">
          <mxGeometry x="1900" y="-4140" width="120" height="60" as="geometry" />
        </mxCell>
        <mxCell id="mG-mqmal-jHBFLolHyjt-1" value="" style="rounded=1;whiteSpace=wrap;html=1;" vertex="1" parent="1">
          <mxGeometry x="1900" y="-4450" width="120" height="60" as="geometry" />
        </mxCell>
      </root>
    </mxGraphModel>
  </diagram>
</mxfile>
